<?xml version="1.0" standalone="no"?>
<!DOCTYPE svg PUBLIC "-//W3C//DTD SVG 1.1//EN" "http://www.w3.org/Graphics/SVG/1.1/DTD/svg11.dtd" >
<svg xmlns="http://www.w3.org/2000/svg" xmlns:xlink="http://www.w3.org/1999/xlink" version="1.1">
<metadata></metadata>
<defs>
<font id="foundrysterling-lightregular" horiz-adv-x="1187" >
<font-face units-per-em="2048" ascent="1638" descent="-410" />
<missing-glyph horiz-adv-x="495" />
<glyph horiz-adv-x="0" />
<glyph unicode="&#xd;" horiz-adv-x="495" />
<glyph unicode=" "  horiz-adv-x="495" />
<glyph unicode="&#x09;" horiz-adv-x="495" />
<glyph unicode="&#xa0;" horiz-adv-x="495" />
<glyph unicode="!" horiz-adv-x="557" d="M209 53q0 29 20.5 50.5t49.5 21.5t49 -21.5t20 -50.5q0 -70 -69 -69q-70 0 -70 69zM219 1366h117l-19 -1057h-79z" />
<glyph unicode="&#x22;" horiz-adv-x="550" d="M117 1366h94l-6 -457h-82zM340 1366h94l-6 -457h-82z" />
<glyph unicode="#" horiz-adv-x="1142" d="M147 616l11 78h188l41 275h-190l10 78h188l45 319h82l-45 -319h240l45 319h82l-45 -319h196l-10 -78h-197l-38 -275h196l-10 -78h-197l-49 -337h-82l49 337h-237l-49 -337h-82l49 337h-191zM428 694h240l39 275h-238z" />
<glyph unicode="$" d="M170 127l51 68q72 -49 105 -66q111 -55 223 -57v612q-100 43 -139 64q-74 39 -121 83q-84 80 -84 213q0 131 94 222.5t250 105.5v139h78v-137q213 -8 344 -139l-56 -55q-49 43 -84 63q-90 51 -204 55v-548q186 -74 258 -142q104 -100 104 -235q0 -156 -92 -256 q-96 -109 -270 -123v-187h-78v183q-215 4 -379 137zM291 1040q0 -84 63 -147q56 -56 195 -115v516q-117 -16 -187.5 -85.5t-70.5 -168.5zM627 74q266 41 266 293q0 98 -80 174q-59 57 -186 112v-579z" />
<glyph unicode="%" horiz-adv-x="1488" d="M96 1010q0 182 79 281.5t222 99.5q131 0 210 -95.5t79 -257.5q0 -172 -80 -269t-219 -97q-133 0 -212 90t-79 248zM186 1016q0 -274 201 -275q96 0 152.5 76t56.5 223q0 129 -53.5 205t-145.5 76q-100 0 -155.5 -80t-55.5 -225zM213 -25l983 1455l68 -50l-983 -1448z M803 313q0 182 79 281.5t222 99.5q131 0 210 -95t79 -257q0 -172 -80 -269.5t-219 -97.5q-133 0 -212 90.5t-79 247.5zM893 319q0 -274 201 -274q96 0 152.5 76t56.5 223q0 129 -53.5 205t-145.5 76q-100 0 -155.5 -80t-55.5 -226z" />
<glyph unicode="&#x26;" horiz-adv-x="1349" d="M117 369q0 166 108 274q70 70 189 127q-82 109 -107 152q-53 92 -53 174q0 127 91 211t235 84q137 0 219 -74t82 -193q0 -152 -125 -256q-49 -41 -211 -123l377 -454q133 170 135 442h88q0 -158 -58 -313q-47 -129 -106 -199q78 -92 143 -123q47 -23 123 -24v-74 q-119 0 -196 41q-61 33 -131 115q-176 -180 -406 -181q-172 0 -284.5 113t-112.5 281zM209 375q0 -135 92 -223.5t229 -88.5q182 0 332 156l-401 490q-252 -121 -252 -334zM346 1098q0 -98 152 -293q156 72 219 135q71 72 71 174q0 90 -59 145.5t-151 55.5q-98 0 -165 -61.5 t-67 -155.5z" />
<glyph unicode="'" horiz-adv-x="327" d="M117 1366h94l-6 -457h-82z" />
<glyph unicode="(" horiz-adv-x="724" d="M158 610q0 618 411 887l49 -61q-217 -174 -299 -408q-61 -172 -61 -430q0 -250 66 -428q84 -219 286 -393l-51 -60q-401 289 -401 893z" />
<glyph unicode=")" horiz-adv-x="724" d="M106 1436l50 61q411 -269 411 -887q0 -604 -401 -893l-51 60q203 174 286 393q66 178 66 428q0 258 -61 430q-82 233 -300 408z" />
<glyph unicode="*" horiz-adv-x="917" d="M117 1128l26 82l271 -108v264h90v-264l268 108l29 -82l-281 -86l180 -241l-75 -51l-166 256l-166 -256l-76 51l180 241z" />
<glyph unicode="+" d="M158 475v78h397v397h78v-397h397v-78h-397v-397h-78v397h-397z" />
<glyph unicode="," horiz-adv-x="446" d="M86 -205q29 29 57 99q41 100 41 208v23h115v-14q0 -211 -149 -361z" />
<glyph unicode="-" horiz-adv-x="995" d="M178 475v78h639v-78h-639z" />
<glyph unicode="." horiz-adv-x="409" d="M133 55q0 29 21.5 50.5t50.5 21.5t50 -21.5t21 -50.5t-21.5 -50t-49.5 -21q-29 0 -50.5 21.5t-21.5 49.5z" />
<glyph unicode="/" horiz-adv-x="856" d="M80 -248l618 1645l78 -31l-618 -1645z" />
<glyph unicode="0" d="M109 692q0 328 124.5 513.5t352.5 185.5q240 0 366.5 -186.5t126.5 -522.5q0 -334 -126 -519.5t-361 -185.5q-238 0 -360.5 186.5t-122.5 528.5zM205 672q0 -293 98 -455t289 -162q391 0 391 627q0 631 -389 631t-389 -641z" />
<glyph unicode="1" d="M209 1094l407 272h78v-1366h-86v1262l-348 -236z" />
<glyph unicode="2" d="M188 0v82l230 227q260 260 352 396q109 156 109 294q0 147 -81 227.5t-229 80.5q-113 0 -223 -58q-70 -37 -94 -63l-53 57q23 33 112 80q131 68 273 68q182 0 286.5 -101.5t104.5 -277.5q0 -162 -131 -346q-80 -113 -285 -318l-266 -266h690v-82h-795z" />
<glyph unicode="3" d="M152 117l53 59q78 -55 82 -57q104 -57 231 -58q164 0 263.5 80t99.5 219q0 121 -84 205q-53 53 -132 75t-229 22h-30v81h36q125 0 193 17q94 23 158 86q72 72 71 186q0 123 -85 199t-228 76q-172 0 -320 -127l-55 57q18 33 107 82q127 72 270 72q188 0 294.5 -98.5 t106.5 -260.5q0 -125 -71 -217q-80 -98 -211 -115q137 -10 219 -102t82 -227q0 -180 -129 -291q-121 -102 -305 -103q-248 0 -387 140z" />
<glyph unicode="4" d="M119 350v78l653 938h90v-938h193v-78h-193v-350h-86v350h-657zM215 428h561v799z" />
<glyph unicode="5" d="M178 106l47 64q27 -27 90 -57q106 -51 217 -52q170 0 269.5 95.5t99.5 259.5q0 150 -88 248q-98 106 -272 106q-139 0 -254 -72l-56 35v633h707v-80h-619v-487q98 59 232 59q211 0 330 -123q112 -118 112 -313q0 -201 -126 -323t-320 -122q-154 0 -273 62q-70 35 -96 67z " />
<glyph unicode="6" d="M160 637q0 311 92 500q127 254 407 254q143 0 256 -60q74 -41 95 -74l-54 -59q-137 113 -282 113q-244 0 -350 -228q-82 -174 -78 -462q0 -16 2 -60q23 145 139 232q109 80 260 79q190 0 299 -122q103 -117 103 -310q0 -199 -117 -327q-121 -135 -311 -136 q-258 0 -375 226q-86 168 -86 434zM291 410q0 -147 93 -253t243 -106q156 0 247 119q87 108 87 264q0 160 -78 256q-84 109 -240 109t-254 -115t-98 -274z" />
<glyph unicode="7" d="M166 1282v84h874v-72l-571 -1294h-107l584 1282h-780z" />
<glyph unicode="8" d="M143 346q0 154 91.5 258.5t234.5 102.5q-135 23 -212 111.5t-77 215.5q0 158 115 257.5t295 99.5q186 0 301 -95.5t115 -251.5q0 -129 -72 -221t-205 -116q152 -12 233.5 -105.5t81.5 -249.5q0 -168 -120.5 -271.5t-319.5 -103.5q-213 0 -337 99.5t-124 269.5zM240 360 q0 -150 97 -231.5t269 -81.5q156 0 249 82t93 229t-97 230.5t-257 83.5q-156 0 -255 -85t-99 -227zM274 1036q0 -129 93.5 -212t228.5 -83q137 0 226 81t89 212t-89 209t-226 78q-143 0 -232.5 -77t-89.5 -208z" />
<glyph unicode="9" d="M139 928q0 199 119 331t309 132q258 0 375 -226q86 -168 86 -434q0 -311 -92 -500q-127 -254 -408 -254q-143 0 -256 60q-74 41 -94 74l53 59q137 -113 283 -113q244 0 350 228q82 174 78 463q0 16 -2 59q-23 -145 -139 -232q-109 -80 -260 -79q-190 0 -299 122 q-102 117 -103 310zM227 934q0 -160 78 -256q84 -109 240 -109t254 114.5t98 274.5q0 147 -93 253t-243 106q-156 0 -248 -119q-86 -109 -86 -264z" />
<glyph unicode=":" horiz-adv-x="409" d="M133 55q0 29 21.5 50.5t50.5 21.5t50 -21.5t21 -50.5t-21.5 -50t-49.5 -21q-29 0 -50.5 21.5t-21.5 49.5zM133 934q0 29 21.5 50.5t50.5 21.5t50 -21.5t21 -50.5t-21.5 -50.5t-49.5 -21.5q-29 0 -50.5 21.5t-21.5 50.5z" />
<glyph unicode=";" horiz-adv-x="446" d="M86 -205q29 29 57 99q41 100 41 208v23h115v-14q0 -211 -149 -361zM174 934q0 29 21.5 50.5t50.5 21.5t50 -21.5t21 -50.5t-21.5 -50.5t-49.5 -21.5q-29 0 -50.5 21.5t-21.5 50.5z" />
<glyph unicode="&#x3c;" horiz-adv-x="1196" d="M127 487v56l907 446l35 -67l-844 -410l844 -401l-33 -70z" />
<glyph unicode="=" d="M123 358v78h942v-78h-942zM123 592v78h942v-78h-942z" />
<glyph unicode="&#x3e;" horiz-adv-x="1196" d="M127 111l844 401l-844 410l35 67l907 -446v-56l-909 -446z" />
<glyph unicode="?" horiz-adv-x="980" d="M117 1278q27 27 100 59q121 53 252 54q164 0 262 -101.5t98 -271.5q0 -156 -112 -268q-47 -47 -129 -98.5t-107 -76.5q-33 -33 -39 -63.5t-6 -134.5v-68h-78q-4 92 -4 121q0 135 43 178q27 27 115 86.5t119 89.5q100 100 100 234q0 127 -82 208t-209 81q-137 0 -278 -93z M328 53q0 29 20.5 50.5t48.5 21.5q29 0 49.5 -21.5t20.5 -50.5q0 -70 -70 -69q-70 0 -69 69z" />
<glyph unicode="@" horiz-adv-x="1576" d="M102 629q0 324 216.5 537.5t543.5 213.5q268 0 440.5 -149.5t172.5 -380.5q0 -221 -144.5 -355.5t-380.5 -134.5q-14 0 -32 2l20 117q-123 -119 -256 -119q-96 0 -154.5 67t-58.5 175q0 186 127 313t315 127q113 0 199 -36l-109 -576q176 12 283 119q115 115 115 299 q0 203 -151.5 331t-387.5 128q-291 0 -481.5 -193.5t-190.5 -488.5q0 -256 164 -414t416 -158q219 0 424 123l45 -63q-188 -141 -479 -142q-287 0 -471.5 183.5t-184.5 474.5zM555 610q0 -72 43 -122t111 -50q129 0 229 121l74 397q-16 4 -49 13q-23 4 -52 4 q-145 0 -250.5 -107.5t-105.5 -255.5z" />
<glyph unicode="A" horiz-adv-x="1161" d="M27 0l497 1366h109l502 -1366h-99l-151 420h-619l-151 -420h-88zM297 502h559l-281 772z" />
<glyph unicode="B" horiz-adv-x="1112" d="M180 0v1366h297q141 0 213 -16q96 -23 160 -86q98 -98 98 -256q0 -113 -57 -195q-66 -92 -184 -113q288 -40 288 -319q0 -156 -102 -258q-82 -82 -211 -107q-84 -16 -301 -16h-201zM268 76h154q166 0 235 14q104 23 176 94.5t72 192.5q0 113 -78 190q-59 59 -180 76 q-66 10 -219 10h-160v-577zM268 729h174q240 0 346 107q70 69 70 180q0 115 -72 186q-59 59 -153 78q-55 10 -176 10h-189v-561z" />
<glyph unicode="C" horiz-adv-x="1222" d="M117 672q0 332 194 530q180 188 455 189q250 0 383 -107l-43 -72q-143 90 -330 91q-240 0 -399 -162q-168 -172 -168 -453q0 -285 150.5 -455t402.5 -170q180 0 360 103l47 -68q-33 -33 -120 -67q-135 -53 -299 -54q-272 0 -449 183q-184 190 -184 512z" />
<glyph unicode="D" horiz-adv-x="1363" d="M180 0v1366h232q248 0 370 -27q162 -35 262 -135q203 -203 203 -516q0 -324 -198 -522q-100 -100 -236 -135q-113 -31 -315 -31h-318zM268 76h197q197 0 280 16q141 31 242 129q164 162 164 471q0 283 -170 453q-100 100 -264 129q-90 16 -301 16h-148v-1214z" />
<glyph unicode="E" horiz-adv-x="999" d="M180 0v1366h692v-80h-604v-528h568v-76h-568v-600h621v-82h-709z" />
<glyph unicode="F" horiz-adv-x="937" d="M180 0v1366h672v-80h-584v-528h545v-76h-545v-682h-88z" />
<glyph unicode="G" horiz-adv-x="1325" d="M117 672q0 332 194 530q180 188 455 189q150 0 272 -45q74 -27 111 -56l-43 -71q-135 84 -330 84q-240 0 -399 -162q-168 -172 -168 -453q0 -289 149.5 -457t405.5 -168q182 0 330 74v443h-332v75h420v-565q-39 -33 -119 -63q-135 -49 -311 -50q-274 0 -449 181 q-186 190 -186 514z" />
<glyph unicode="H" horiz-adv-x="1277" d="M180 0v1366h88v-606h742v606h88v-1366h-88v680h-742v-680h-88z" />
<glyph unicode="I" horiz-adv-x="448" d="M180 0v1366h88v-1366h-88z" />
<glyph unicode="J" horiz-adv-x="704" d="M20 49l39 70q106 -61 191 -62q92 0 141 49q61 61 62 218v1042h88v-971q0 -133 -9 -182q-16 -100 -73 -158q-78 -78 -193 -78q-137 0 -246 72z" />
<glyph unicode="K" horiz-adv-x="1064" d="M180 0v1366h88v-649l631 649h109l-652 -672l684 -694h-122l-650 662v-662h-88z" />
<glyph unicode="L" horiz-adv-x="944" d="M180 0v1366h88v-1284h604v-82h-692z" />
<glyph unicode="M" horiz-adv-x="1769" d="M164 0l160 1366h104l459 -1227l448 1227h109l162 -1366h-101l-137 1233l-453 -1233h-73l-455 1233l-135 -1233h-88z" />
<glyph unicode="N" horiz-adv-x="1269" d="M180 0v1366h113l715 -1264l-2 1264h84v-1366h-123l-705 1245l2 -1245h-84z" />
<glyph unicode="O" horiz-adv-x="1413" d="M117 666q0 317 169 521t433 204q250 0 413.5 -198t163.5 -507q0 -311 -166.5 -510t-433.5 -199q-248 0 -413.5 196t-165.5 493zM213 692q0 -276 140.5 -454.5t353.5 -178.5q221 0 357 169t136 468q0 272 -140 442.5t-358 170.5q-221 0 -355 -169t-134 -448z" />
<glyph unicode="P" horiz-adv-x="1077" d="M180 0v1366h291q143 0 215 -14q106 -23 172 -88q111 -111 111 -285q0 -178 -117 -295q-102 -102 -336 -102h-248v-582h-88zM268 657h238q199 0 278 80q95 94 95 248q0 139 -91 229q-51 51 -137 66q-55 10 -200 10h-183v-633z" />
<glyph unicode="Q" horiz-adv-x="1413" d="M286 1187q169 204 433 204q250 0 413.5 -198t163.5 -507q0 -307 -159.5 -500.5t-409.5 -208.5q143 -184 449 -184q37 0 72 4h3q31 0 39 -69q-86 -14 -155 -15q-348 0 -517 271q-205 25 -346 202q-155 194 -155 476q0 321 169 525zM213 692q0 -276 140.5 -454.5 t353.5 -178.5q221 0 357 169t136 468q0 272 -140 442.5t-358 170.5q-221 0 -355 -169t-134 -448z" />
<glyph unicode="R" horiz-adv-x="1099" d="M180 0v1366h271q152 0 213 -10q115 -20 178 -84q108 -108 108 -270q0 -153 -89 -243.5t-216 -103.5q76 -6 131 -77q25 -35 66 -127l200 -451h-92l-151 344q-43 96 -56 123q-39 72 -77 106q-63 53 -228 54h-170v-627h-88zM268 702h99q162 0 231 13q115 20 184 90 q78 78 78 203q0 121 -84 204q-51 51 -127 68q-53 10 -174 10h-207v-588z" />
<glyph unicode="S" horiz-adv-x="1030" d="M104 119l52 67q176 -127 321 -127q160 0 246 83t86 220q0 100 -78 179q-68 68 -256 148.5t-254 146.5q-82 82 -82 215q0 150 106.5 245t278.5 95q219 0 361 -144l-56 -55q-63 53 -81 65q-94 55 -216 56q-135 0 -222 -74t-87 -186q0 -92 63.5 -155.5t255 -142.5 t259.5 -147q100 -100 100 -239q0 -174 -104 -279q-111 -113 -314 -113q-215 0 -379 142z" />
<glyph unicode="T" horiz-adv-x="1077" d="M70 1286v80h938v-80h-426v-1286h-88v1286h-424z" />
<glyph unicode="U" horiz-adv-x="1239" d="M160 627v739h88v-881q0 -233 90 -323q104 -104 289 -105q170 0 264 95q70 70 88 172q12 68 12 262v780h88v-770q0 -195 -12 -266q-23 -145 -106 -230q-123 -123 -340 -123t-345 127q-86 86 -106 224q-10 68 -10 299z" />
<glyph unicode="V" horiz-adv-x="1191" d="M53 1366h101l442 -1305l453 1305h90l-484 -1366h-127z" />
<glyph unicode="W" horiz-adv-x="1802" d="M84 1366h102l316 -1315l327 1315h156l326 -1315l317 1315h90l-342 -1366h-145l-326 1315l-332 -1315h-145z" />
<glyph unicode="X" horiz-adv-x="1112" d="M59 0l435 713l-406 653h111l352 -582l346 582h102l-399 -655l453 -711h-109l-395 639l-391 -639h-99z" />
<glyph unicode="Y" horiz-adv-x="1079" d="M57 1366h103l385 -735l379 735h98l-438 -827v-539h-88v539z" />
<glyph unicode="Z" horiz-adv-x="1101" d="M98 0v72l787 1214h-744v80h844v-72l-780 -1212h796v-82h-903z" />
<glyph unicode="[" horiz-adv-x="628" d="M180 -248v1614h369v-78h-281v-1458h281v-78h-369z" />
<glyph unicode="\" horiz-adv-x="856" d="M80 1366l78 31l618 -1645l-78 -31z" />
<glyph unicode="]" horiz-adv-x="628" d="M80 -170h280v1458h-280v78h369v-1614h-369v78z" />
<glyph unicode="^" d="M164 524l395 842h68l397 -842h-102l-332 719l-330 -719h-96z" />
<glyph unicode="_" horiz-adv-x="935" d="M-4 -170h944v-78h-944v78z" />
<glyph unicode="`" horiz-adv-x="614" d="M78 1274l43 98l416 -192l-31 -64z" />
<glyph unicode="a" horiz-adv-x="929" d="M84 266q0 317 569 318h60v53q0 88 -4 113q-8 66 -47 104q-70 70 -205 70q-147 0 -271 -82l-43 61q18 20 93 51q111 47 233 47q160 0 250 -90q78 -78 78 -272v-639h-84v74q-174 -94 -316 -94q-141 0 -227 77.5t-86 208.5zM172 264q0 -86 55 -141q66 -66 191 -66 q137 0 295 90v363h-72q-469 0 -469 -246z" />
<glyph unicode="b" horiz-adv-x="1036" d="M147 43v1430h84v-574q125 100 283 100q201 0 315.5 -135t114.5 -362q0 -229 -137 -374.5t-352 -145.5q-139 0 -308 61zM231 98q137 -39 230 -39q180 0 287.5 120t107.5 319q0 186 -93 305t-251 119q-150 0 -281 -105v-719z" />
<glyph unicode="c" horiz-adv-x="927" d="M92 465q0 238 131 386t346 148q109 0 201 -41q59 -27 80 -49l-43 -63q-113 72 -244 72q-174 0 -278.5 -121t-104.5 -314q0 -190 102.5 -303.5t264.5 -113.5q139 0 276 75l39 -67q-29 -25 -102 -54q-101 -38 -211 -38h-6q-199 0 -322 127q-129 131 -129 356z" />
<glyph unicode="d" horiz-adv-x="1036" d="M92 471q0 233 130 380.5t337 147.5q125 0 246 -67v541h84v-1473h-84v82q-125 -100 -291 -100q-188 0 -305 134t-117 355zM180 467q0 -180 93.5 -294t248.5 -114q144 1 283 105v686q-127 74 -244 74q-172 0 -276.5 -126t-104.5 -331z" />
<glyph unicode="e" horiz-adv-x="993" d="M92 481q0 240 118 379t320 139q162 0 265 -116q106 -125 106 -338q0 -16 -4 -62h-717q0 -193 95.5 -305t265.5 -112q158 0 290 84l41 -70q-20 -20 -100 -53q-117 -45 -237 -45q-205 0 -324 137t-119 362zM184 561h631q0 145 -67 248q-78 117 -218 117q-139 0 -235 -97 q-102 -102 -111 -268z" />
<glyph unicode="f" horiz-adv-x="688" d="M51 905v72h178v203q0 162 84 245q72 72 197 72t184 -51l-35 -66q-68 39 -145 39q-90 0 -139 -49q-61 -61 -62 -209v-184h318v-72h-318v-905h-84v905h-178z" />
<glyph unicode="g" horiz-adv-x="1036" d="M92 479q0 227 135 373.5t340 146.5q162 0 322 -79v-940q0 -250 -88 -338q-102 -102 -305 -103q-133 0 -246 51q-70 33 -98 62l43 63q90 -51 92 -53q100 -45 207 -45q164 0 247 84q41 41 54 111q8 49 8 198v88q-160 -100 -299 -100q-180 0 -296 132t-116 349zM178 479 q0 -178 90 -290.5t240 -112.5q98 0 201 49q47 26 94 55v690q-119 51 -242 52q-174 0 -278.5 -123t-104.5 -320z" />
<glyph unicode="h" horiz-adv-x="1003" d="M147 0v1473h84v-580q160 106 328 106q150 0 227 -77q55 -55 74 -140q10 -49 10 -157v-625h-84v586q0 121 -8 164q-10 72 -53 114q-57 57 -174 58q-143 0 -320 -109v-813h-84z" />
<glyph unicode="i" horiz-adv-x="378" d="M127 1323q0 61 63 61q62 0 62 -61q0 -63 -62 -63q-27 0 -45 18t-18 45zM147 0v977h84v-977h-84z" />
<glyph unicode="j" horiz-adv-x="376" d="M-156 -438l21 69q49 -18 96 -18q96 0 143 57q41 49 41 185v1122h84v-1108q0 -184 -72.5 -257t-183.5 -73q-74 0 -129 23zM125 1321q0 25 18.5 43t44.5 18q62 0 62 -61t-62 -61q-27 0 -45 18t-18 43z" />
<glyph unicode="k" horiz-adv-x="903" d="M147 0v1473h84v-938l467 442h115l-485 -449l540 -528h-118l-519 516v-516h-84z" />
<glyph unicode="l" horiz-adv-x="378" d="M147 0v1473h84v-1473h-84z" />
<glyph unicode="m" horiz-adv-x="1595" d="M147 0v977h84v-84q160 106 322 106q111 0 182 -49q20 -16 66 -69q193 118 357 118h3q135 0 211 -75q59 -59 78 -152q12 -61 12 -207v-565h-84v616q0 184 -65 250q-53 53 -160 54q-141 0 -324 -103q18 -43 19 -229v-588h-84v555q0 152 -10 209q-10 68 -45 102 q-55 55 -160 56q-147 0 -318 -109v-813h-84z" />
<glyph unicode="n" horiz-adv-x="1003" d="M147 0v977h84v-84q160 106 328 106q150 0 227 -77q55 -55 74 -140q10 -49 10 -157v-625h-84v586q0 121 -8 164q-10 72 -53 114q-57 57 -174 58q-143 0 -320 -109v-813h-84z" />
<glyph unicode="o" horiz-adv-x="1044" d="M92 489q0 236 116 373t320 137q197 0 310.5 -138t113.5 -386q0 -229 -116.5 -363.5t-315.5 -134.5q-197 0 -312.5 137.5t-115.5 374.5zM180 492q0 -195 97.5 -317t244.5 -122q162 0 252 115.5t90 314.5q0 197 -97 320t-245 123q-158 0 -250 -119t-92 -315z" />
<glyph unicode="p" horiz-adv-x="1036" d="M147 -434v1411h84v-78q125 100 291 100q188 0 305 -134t117 -355q0 -233 -132 -380.5t-343 -147.5q-135 0 -238 67v-483h-84zM231 131q123 -72 244 -72q172 0 276.5 126t104.5 331q0 180 -93 294t-249 114q-143 0 -283 -105v-688z" />
<glyph unicode="q" horiz-adv-x="1036" d="M92 479q0 229 137.5 374.5t352.5 145.5q139 0 307 -61v-1372h-84v516q-125 -100 -283 -100q-201 0 -315.5 135t-114.5 362zM180 483q0 -186 93.5 -305t250.5 -119q150 1 281 105v719q-135 39 -230 39q-180 0 -287.5 -120t-107.5 -319z" />
<glyph unicode="r" horiz-adv-x="679" d="M147 0v977h84v-150q117 176 308 177q51 -1 100 -15l-21 -74q-49 6 -83 7q-131 0 -228 -95q-29 -29 -76 -104v-723h-84z" />
<glyph unicode="s" horiz-adv-x="831" d="M70 68l39 67q123 -82 264 -82q123 0 193.5 52.5t70.5 146.5q0 72 -55 127q-45 45 -201 99t-211 110q-63 63 -64 166q0 113 89.5 179t220.5 66q182 0 276 -77l-39 -66q-104 70 -229 70q-96 0 -163.5 -46t-67.5 -124q0 -66 44 -110t201.5 -100.5t214.5 -113.5 q72 -72 72 -172q0 -133 -92 -208t-252 -75q-119 0 -223 43q-74 29 -88 48z" />
<glyph unicode="t" horiz-adv-x="724" d="M49 905v72h170v278h84v-278h322v-72h-322v-596q0 -141 16 -180q31 -72 146 -72q61 0 143 31l27 -68q-84 -40 -174 -40h-4q-123 0 -187 63q-39 39 -49 117q-2 27 -2 145v600h-170z" />
<glyph unicode="u" horiz-adv-x="1003" d="M133 385v592h84v-600q0 -100 6 -139q12 -74 53 -115q68 -68 177 -68q133 0 319 107v815h84v-977h-84v84q-156 -104 -330 -104q-137 0 -225 88q-55 55 -72 139q-12 55 -12 178z" />
<glyph unicode="v" horiz-adv-x="987" d="M45 977h96l346 -895l347 895h92l-387 -977h-109z" />
<glyph unicode="w" horiz-adv-x="1495" d="M74 977h90l248 -899l268 899h133l258 -899l254 899h86l-289 -977h-114l-267 924l-274 -924h-117z" />
<glyph unicode="x" horiz-adv-x="935" d="M49 0l359 504l-332 473h108l279 -414l285 414h100l-334 -473l352 -504h-106l-305 442l-305 -442h-101z" />
<glyph unicode="y" horiz-adv-x="958" d="M-37 -432l25 74q90 -23 135 -23q111 0 178 68q55 55 148 284l-402 1006h96l353 -889l315 889h92l-385 -1063q-74 -203 -145 -274q-100 -100 -248 -101q-104 0 -162 29z" />
<glyph unicode="z" horiz-adv-x="925" d="M90 0v70l598 835h-565v72h663v-68l-589 -833h612v-76h-719z" />
<glyph unicode="{" horiz-adv-x="649" d="M109 543v78q53 0 75 28q16 23 17 129v293q0 182 57 240q37 37 90 47q37 8 131 8h90v-78h-71q-139 0 -170 -31q-37 -37 -37 -159v-314q0 -100 -2 -116q-12 -61 -66 -86q23 -10 41 -29q27 -27 27 -131v-402q0 -123 37 -159q31 -31 170 -31h71v-78h-90q-94 0 -131 8 q-53 10 -90 47q-57 57 -57 240v338q0 115 -21.5 136.5t-70.5 21.5z" />
<glyph unicode="|" horiz-adv-x="485" d="M197 -248v1614h92v-1614h-92z" />
<glyph unicode="}" horiz-adv-x="649" d="M80 -170h72q139 0 172.5 34t33.5 156v402q0 104 27 131q18 18 41 29q-53 25 -66 86q-2 16 -2 116v314q0 123 -36 159q-31 31 -170 31h-72v78h90q94 0 131 -8q53 -10 90 -47q57 -57 58 -240v-293q0 -113 22.5 -135t69.5 -22v-78q-49 0 -70.5 -21.5t-21.5 -136.5v-338 q0 -182 -58 -240q-37 -37 -90 -47q-37 -8 -131 -8h-90v78z" />
<glyph unicode="~" d="M160 500q88 123 231 123q82 0 215 -58.5t201 -58.5q76 0 149 82l72 -58q-98 -123 -221 -122q-80 0 -215 58t-201 58q-80 0 -158 -78z" />
<glyph unicode="&#xa1;" horiz-adv-x="557" d="M209 930q0 70 70 69q69 1 69 -69q0 -29 -20.5 -50.5t-48.5 -21.5q-29 0 -49.5 21.5t-20.5 50.5zM221 -383l19 1057h79l19 -1057h-117z" />
<glyph unicode="&#xa2;" d="M225 483q0 219 113 363.5t303 167.5v164h78v-160q102 -4 188 -43q57 -27 76 -47l-43 -64q-41 27 -68 37q-72 31 -153 35v-850q119 8 237 74l39 -68q-25 -23 -88 -47q-92 -37 -188 -43v-195h-78v195q-186 12 -301 139t-115 342zM313 502q0 -178 91.5 -290t236.5 -126v846 q-152 -20 -240 -137t-88 -293z" />
<glyph unicode="&#xa3;" d="M174 0v74q98 39 139 92q57 80 58 248q0 55 -11 202h-182v80h174q-18 129 -18 222q0 219 113.5 345t308.5 126q125 0 225 -46q67 -32 92 -63l-49 -55q-106 86 -260 86q-160 0 -249 -101.5t-89 -291.5q0 -59 16 -222h400v-80h-391q0 -6 5 -59t5 -86q0 -295 -150 -393h748 v-78h-885z" />
<glyph unicode="&#xa5;" d="M127 1366h104l357 -653l373 653h100l-399 -674h270v-78h-299v-108h299v-78h-299v-428h-86v428h-295v78h295v108h-295v78h264z" />
<glyph unicode="&#xa6;" horiz-adv-x="485" d="M197 -248v621h92v-621h-92zM197 745v621h92v-621h-92z" />
<glyph unicode="&#xa7;" d="M221 -182l47 69q154 -98 301 -98q129 0 201 64q66 57 66 145q0 80 -51.5 131t-225.5 127t-240 141q-76 76 -75 168q0 184 262 281q-211 102 -211 272q0 125 90 199t236 74q170 0 290 -97l-45 -61q-115 80 -248 80q-109 0 -169 -50.5t-60 -127.5q0 -78 45 -123t217 -124 t232 -138q84 -85 84 -185q0 -197 -240 -284q115 -59 159 -120t44 -147q0 -131 -92 -219q-98 -92 -258 -92q-201 0 -359 115zM338 578q0 -68 51 -119q41 -41 270 -144q213 78 213 230q0 78 -53 131q-59 59 -229 137q-252 -76 -252 -235z" />
<glyph unicode="&#xa8;" horiz-adv-x="591" d="M80 1247q0 31 21.5 51.5t52.5 20.5q71 0 71 -72q0 -31 -20.5 -52t-50.5 -21q-31 0 -52.5 21.5t-21.5 51.5zM367 1247q0 31 21.5 51.5t51.5 20.5q72 0 72 -72q0 -31 -20.5 -52t-51.5 -21t-52 21.5t-21 51.5z" />
<glyph unicode="&#xa9;" horiz-adv-x="1619" d="M102 682q0 291 209 500t500 209q293 0 500 -211t207 -498q0 -291 -208 -499t-499 -208q-293 0 -501 208t-208 499zM190 682q0 -254 183.5 -435t437.5 -181t435 181t181 435q0 260 -182 439t-434 179q-254 0 -437.5 -185t-183.5 -433zM467 672q0 182 98.5 295.5 t259.5 113.5q78 0 150 -34q47 -20 67 -41l-43 -62q-88 61 -186 62q-117 0 -187.5 -89.5t-70.5 -230.5q0 -139 71.5 -221t182.5 -82q100 0 203 57l39 -61q-84 -78 -244 -78q-150 0 -242 98q-98 100 -98 273z" />
<glyph unicode="&#xaa;" horiz-adv-x="827" d="M131 842q0 238 422 237h39v35q0 119 -37 156q-51 51 -145 51q-111 0 -199 -64l-37 54q14 18 74 41q82 35 170 34q119 0 186 -67q59 -59 60 -203v-475h-72v51q-111 -66 -225 -65q-104 0 -170 58t-66 157zM207 840q0 -61 39 -101q45 -47 135 -47q102 0 211 66v258h-47 q-338 0 -338 -176z" />
<glyph unicode="&#xab;" horiz-adv-x="915" d="M133 508l281 381l69 -49l-219 -332l219 -342l-69 -47zM432 508l281 381l69 -49l-219 -332l219 -342l-69 -47z" />
<glyph unicode="&#xac;" horiz-adv-x="1191" d="M125 553v78h942v-352h-84v274h-858z" />
<glyph unicode="&#xad;" horiz-adv-x="995" d="M178 475v78h639v-78h-639z" />
<glyph unicode="&#xae;" horiz-adv-x="1099" d="M102 940q0 186 130 317.5t317 131.5q186 0 317 -131.5t131 -317.5t-131 -316t-317 -130t-316.5 130t-130.5 316zM178 940q0 -158 106.5 -263.5t264.5 -105.5t265.5 106.5t107.5 262.5q0 158 -107.5 264.5t-265.5 106.5t-264.5 -106.5t-106.5 -264.5zM395 698v494h117 q121 0 166 -45q37 -37 37 -96q0 -109 -123 -115q55 -2 90 -76l78 -162h-78l-61 127q-27 57 -45.5 69.5t-75.5 12.5h-33v-209h-72zM467 969q86 0 113 6q65 19 65 80q0 74 -129 73h-49v-159z" />
<glyph unicode="&#xaf;" horiz-adv-x="743" d="M80 1208v78h584v-78h-584z" />
<glyph unicode="&#xb0;" horiz-adv-x="1210" d="M315 1098q0 121 84 204.5t205 83.5t206 -83.5t85 -204.5t-85 -206t-206 -85t-205 85t-84 206zM389 1098q0 -90 63.5 -153.5t153.5 -63.5t153.5 63.5t63.5 153.5t-63.5 153.5t-153.5 63.5t-153.5 -63.5t-63.5 -153.5z" />
<glyph unicode="&#xb1;" d="M158 0v78h872v-78h-872zM158 606v78h397v442h78v-442h397v-78h-397v-432h-78v432h-397z" />
<glyph unicode="&#xb2;" horiz-adv-x="714" d="M156 686v64q193 197 219 227q100 119 100 203q0 129 -125 129q-80 0 -149 -64l-45 45q74 94 202 94q90 0 143.5 -55t53.5 -145q0 -133 -195 -328l-100 -100h299v-70h-403z" />
<glyph unicode="&#xb3;" horiz-adv-x="714" d="M139 766l49 49q70 -63 144 -63q147 0 147 120q0 55 -33 89q-41 41 -161 40h-25v74h37q106 0 145 39q29 29 29 80q0 49 -35 83t-92 34q-80 0 -139 -64l-51 47q66 90 194 90q92 0 147.5 -52t55.5 -136q0 -49 -36 -95t-91 -59q135 -36 135 -159q0 -96 -63.5 -150.5 t-153.5 -54.5q-135 0 -203 88z" />
<glyph unicode="&#xb4;" horiz-adv-x="618" d="M80 1180l416 192l43 -98l-428 -158z" />
<glyph unicode="&#xb5;" horiz-adv-x="1017" d="M147 -248v1225h84v-600q0 -100 7 -139q12 -74 53 -115q68 -68 176 -68q133 0 319 107v815h84v-977h-84v78q-180 -98 -331 -98q-135 0 -224 88v-316h-84z" />
<glyph unicode="&#xb6;" horiz-adv-x="1167" d="M109 993q0 156 104 260q72 72 190 95q94 18 299 18h338v-78h-114v-1536h-80v1536h-103v-1536h-79v842q-84 -2 -89 -2q-248 0 -360 113q-106 106 -106 288z" />
<glyph unicode="&#xb7;" horiz-adv-x="409" d="M133 520q0 29 21.5 50.5t50.5 21.5t50 -21.5t21 -50.5t-21.5 -50t-49.5 -21q-29 0 -50.5 21.5t-21.5 49.5z" />
<glyph unicode="&#xb8;" horiz-adv-x="677" d="M184 -412l25 58q59 -25 96 -25q119 0 119 105q0 100 -102 100q-49 0 -86 -27l-43 25l36 176h66l-23 -125q31 18 72 19q74 0 118 -45t44 -119q0 -78 -56.5 -126t-127.5 -48q-74 0 -138 32z" />
<glyph unicode="&#xb9;" horiz-adv-x="714" d="M162 1233l235 143h62v-690h-78v598l-176 -110z" />
<glyph unicode="&#xba;" horiz-adv-x="827" d="M94 1008q0 174 86 276t238 102q147 0 231 -103.5t84 -285.5q0 -170 -86 -270t-235 -100q-145 0 -231.5 102t-86.5 279zM168 1010q0 -141 69.5 -229.5t176.5 -88.5q115 0 180 83.5t65 228.5q0 143 -69.5 231t-175.5 88q-113 0 -179.5 -85t-66.5 -228z" />
<glyph unicode="&#xbb;" horiz-adv-x="915" d="M133 166l219 342l-219 332l70 49l280 -381l-280 -389zM432 166l219 342l-219 332l70 49l280 -381l-280 -389z" />
<glyph unicode="&#xbc;" horiz-adv-x="1482" d="M205 -25l983 1455l67 -50l-983 -1448zM211 1233l235 143h62v-690h-78v598l-176 -110zM788 170v57l351 461h67v-455h103v-63h-103v-170h-73v170h-345zM870 233h263v349z" />
<glyph unicode="&#xbd;" horiz-adv-x="1482" d="M102 -25l983 1455l68 -50l-983 -1448zM109 1233l235 143h62v-690h-78v598l-176 -110zM950 0v63q193 197 219 228q100 119 101 203q0 129 -125 129q-80 0 -150 -64l-45 45q74 94 203 94q90 0 143.5 -55t53.5 -145q0 -133 -195 -328l-100 -100h299v-70h-404z" />
<glyph unicode="&#xbe;" horiz-adv-x="1482" d="M193 766l49 49q70 -63 143 -63q147 0 147 120q0 55 -32 89q-41 41 -162 40h-25v74h37q106 0 146 39q29 29 28 80q0 49 -34.5 83t-92.5 34q-80 0 -139 -64l-51 47q66 90 194 90q92 0 147.5 -52t55.5 -136q0 -49 -36 -95t-91 -59q135 -36 135 -159q0 -96 -63.5 -150.5 t-153.5 -54.5q-135 0 -202 88zM215 -25l983 1455l68 -50l-983 -1448zM799 170v57l350 461h68v-455h102v-63h-102v-170h-74v170h-344zM881 233h262v349z" />
<glyph unicode="&#xbf;" horiz-adv-x="980" d="M152 -35q0 156 112 268q47 47 129 98.5t107 76.5q33 33 39 63.5t6 134.5v68h78q4 -92 4 -121q0 -135 -43 -178q-27 -27 -115 -86.5t-119 -89.5q-100 -100 -100 -234q0 -127 82 -208t209 -81q137 0 278 93l45 -64q-27 -27 -100 -59q-121 -53 -252 -54q-164 0 -262 101.5 t-98 271.5zM514 930q0 70 70 69q69 1 69 -69q0 -29 -20.5 -50.5t-48.5 -21.5q-29 0 -49.5 21.5t-20.5 50.5z" />
<glyph unicode="&#xc0;" horiz-adv-x="1161" d="M27 0l497 1366h109l502 -1366h-99l-151 420h-619l-151 -420h-88zM297 502h559l-281 772zM369 1622l43 98l416 -192l-31 -64z" />
<glyph unicode="&#xc1;" horiz-adv-x="1161" d="M27 0l497 1366h109l502 -1366h-99l-151 420h-619l-151 -420h-88zM297 502h559l-281 772zM352 1526l416 192l43 -98l-428 -158z" />
<glyph unicode="&#xc2;" horiz-adv-x="1161" d="M27 0l497 1366h109l502 -1366h-99l-151 420h-619l-151 -420h-88zM275 1526l303 184l299 -184l-39 -62l-260 138l-260 -138zM297 502h559l-281 772z" />
<glyph unicode="&#xc3;" horiz-adv-x="1161" d="M27 0l497 1366h109l502 -1366h-99l-151 420h-619l-151 -420h-88zM289 1532q100 80 182 80q39 0 116 -24.5t116 -24.5q72 0 139 51l49 -59q-82 -82 -190 -82q-37 0 -113 22.5t-117 22.5q-66 0 -131 -45zM297 502h559l-281 772z" />
<glyph unicode="&#xc4;" horiz-adv-x="1161" d="M27 0l497 1366h109l502 -1366h-99l-151 420h-619l-151 -420h-88zM297 502h559l-281 772zM361 1571q0 31 21.5 51.5t52.5 20.5q71 0 71 -72q0 -31 -20.5 -52t-50.5 -21q-31 0 -52.5 21.5t-21.5 51.5zM648 1571q0 31 21.5 51.5t51.5 20.5q72 0 72 -72q0 -31 -20.5 -52 t-51.5 -21t-52 21.5t-21 51.5z" />
<glyph unicode="&#xc5;" horiz-adv-x="1161" d="M27 0l497 1366h109l502 -1366h-99l-151 420h-619l-151 -420h-88zM297 502h559l-281 772z" />
<glyph unicode="&#xc6;" horiz-adv-x="1697" d="M45 0l770 1366h746v-80h-605v-528h568v-76h-568v-600h621v-82h-709v418h-493l-230 -418h-100zM416 498h452v794z" />
<glyph unicode="&#xc7;" horiz-adv-x="1222" d="M117 672q0 332 194 530q180 188 455 189q150 0 272 -45q74 -27 111 -56l-43 -71q-135 84 -330 84q-240 0 -399 -162q-168 -172 -168 -453q0 -285 150.5 -455t402.5 -170q180 0 360 103l47 -68q-31 -31 -122 -67q-141 -53 -312 -54l-20 -106q31 16 73 16q76 0 122 -46 t46 -122q0 -82 -58 -131t-132 -49q-86 0 -143 33l24 59q57 -25 101 -24q123 0 122 108q0 104 -104 105q-51 0 -90 -29l-45 27l35 164q-227 27 -377 192q-172 188 -172 498z" />
<glyph unicode="&#xc8;" horiz-adv-x="999" d="M180 0v1366h692v-80h-604v-528h568v-76h-568v-600h621v-82h-709zM299 1622l43 98l416 -192l-31 -64z" />
<glyph unicode="&#xc9;" horiz-adv-x="999" d="M180 0v1366h692v-80h-604v-528h568v-76h-568v-600h621v-82h-709zM295 1528l416 192l43 -98l-428 -158z" />
<glyph unicode="&#xca;" horiz-adv-x="999" d="M180 0v1366h692v-80h-604v-528h568v-76h-568v-600h621v-82h-709zM217 1526l303 184l299 -184l-39 -62l-260 138l-260 -138z" />
<glyph unicode="&#xcb;" horiz-adv-x="999" d="M180 0v1366h692v-80h-604v-528h568v-76h-568v-600h621v-82h-709zM318 1571q0 31 21.5 51.5t52.5 20.5q71 0 71 -72q0 -31 -20.5 -52t-50.5 -21q-31 0 -52.5 21.5t-21.5 51.5zM605 1571q0 31 21.5 51.5t51.5 20.5q72 0 72 -72q0 -31 -20.5 -52t-51.5 -21t-52 21.5 t-21 51.5z" />
<glyph unicode="&#xcc;" horiz-adv-x="448" d="M-2 1622l43 98l416 -192l-31 -64zM178 0v1366h88v-1366h-88z" />
<glyph unicode="&#xcd;" horiz-adv-x="448" d="M-4 1528l416 192l43 -98l-428 -158zM180 0v1366h88v-1366h-88z" />
<glyph unicode="&#xce;" horiz-adv-x="448" d="M-76 1526l303 184l299 -184l-39 -62l-260 138l-260 -138zM178 0v1366h88v-1366h-88z" />
<glyph unicode="&#xcf;" horiz-adv-x="448" d="M10 1571q0 31 21.5 51.5t52.5 20.5q71 0 71 -72q0 -31 -20.5 -52t-50.5 -21q-31 0 -52.5 21.5t-21.5 51.5zM178 0v1366h88v-1366h-88zM297 1571q0 31 21.5 51.5t51.5 20.5q72 0 72 -72q0 -31 -20.5 -52t-51.5 -21t-52 21.5t-21 51.5z" />
<glyph unicode="&#xd0;" horiz-adv-x="1384" d="M-4 682v76h205v608h231q248 0 371 -27q162 -35 262 -135q203 -203 203 -516q0 -324 -199 -522q-100 -100 -235 -135q-113 -31 -316 -31h-317v682h-205zM289 76h196q197 0 281 16q141 31 242 129q163 162 163 471q0 283 -170 453q-100 100 -264 129q-90 16 -301 16h-147 v-532h430v-76h-430v-606z" />
<glyph unicode="&#xd1;" horiz-adv-x="1269" d="M180 0v1366h113l715 -1264l-2 1264h84v-1366h-123l-705 1245l2 -1245h-84zM332 1532q100 80 182 80q39 0 116 -24.5t116 -24.5q72 0 139 51l49 -59q-82 -82 -190 -82q-37 0 -113 22.5t-117 22.5q-66 0 -131 -45z" />
<glyph unicode="&#xd2;" horiz-adv-x="1413" d="M117 666q0 317 169 521t433 204q250 0 413.5 -198t163.5 -507q0 -311 -166.5 -510t-433.5 -199q-248 0 -413.5 196t-165.5 493zM213 692q0 -276 140.5 -454.5t353.5 -178.5q221 0 357 169t136 468q0 272 -140 442.5t-358 170.5q-221 0 -355 -169t-134 -448zM486 1622 l43 98l416 -192l-31 -64z" />
<glyph unicode="&#xd3;" horiz-adv-x="1413" d="M117 666q0 317 169 521t433 204q250 0 413.5 -198t163.5 -507q0 -311 -166.5 -510t-433.5 -199q-248 0 -413.5 196t-165.5 493zM213 692q0 -276 140.5 -454.5t353.5 -178.5q221 0 357 169t136 468q0 272 -140 442.5t-358 170.5q-221 0 -355 -169t-134 -448zM488 1530 l416 192l43 -98l-428 -158z" />
<glyph unicode="&#xd4;" horiz-adv-x="1413" d="M117 666q0 317 169 521t433 204q250 0 413.5 -198t163.5 -507q0 -311 -166.5 -510t-433.5 -199q-248 0 -413.5 196t-165.5 493zM213 692q0 -276 140.5 -454.5t353.5 -178.5q221 0 357 169t136 468q0 272 -140 442.5t-358 170.5q-221 0 -355 -169t-134 -448zM414 1526 l303 184l299 -184l-39 -62l-260 138l-260 -138z" />
<glyph unicode="&#xd5;" horiz-adv-x="1413" d="M117 666q0 317 169 521t433 204q250 0 413.5 -198t163.5 -507q0 -311 -166.5 -510t-433.5 -199q-248 0 -413.5 196t-165.5 493zM213 692q0 -276 140.5 -454.5t353.5 -178.5q221 0 357 169t136 468q0 272 -140 442.5t-358 170.5q-221 0 -355 -169t-134 -448zM410 1532 q100 80 182 80q39 0 116 -24.5t116 -24.5q72 0 139 51l49 -59q-82 -82 -190 -82q-37 0 -113 22.5t-117 22.5q-66 0 -131 -45z" />
<glyph unicode="&#xd6;" horiz-adv-x="1413" d="M117 666q0 317 169 521t433 204q250 0 413.5 -198t163.5 -507q0 -311 -166.5 -510t-433.5 -199q-248 0 -413.5 196t-165.5 493zM213 692q0 -276 140.5 -454.5t353.5 -178.5q221 0 357 169t136 468q0 272 -140 442.5t-358 170.5q-221 0 -355 -169t-134 -448zM500 1571 q0 31 21.5 51.5t52.5 20.5q71 0 71 -72q0 -31 -20.5 -52t-50.5 -21q-31 0 -52.5 21.5t-21.5 51.5zM787 1571q0 31 21.5 51.5t51.5 20.5q72 0 72 -72q0 -31 -20.5 -52t-51.5 -21t-52 21.5t-21 51.5z" />
<glyph unicode="&#xd7;" d="M147 121l392 391l-392 395l52 54l393 -394l395 394l53 -54l-393 -395l393 -391l-53 -53l-395 391l-393 -391z" />
<glyph unicode="&#xd8;" horiz-adv-x="1413" d="M117 666q0 317 169 521t433 204q117 0 219 -45q63 -27 88 -52l113 201l69 -43l-118 -211q206 -195 206 -555q0 -311 -166.5 -510t-433.5 -199q-98 0 -196 39q-68 25 -86 43l-111 -192l-72 41l115 205q-70 55 -125 147q-104 174 -104 406zM213 692q0 -326 178 -499 l588 1026q-98 90 -277 90q-221 0 -355 -169t-134 -448zM457 137q35 -20 71 -41q84 -39 179 -39q221 0 357 170t136 469q0 195 -76 346q-43 86 -84 121z" />
<glyph unicode="&#xd9;" horiz-adv-x="1239" d="M160 627v739h88v-881q0 -233 90 -323q104 -104 289 -105q170 0 264 95q70 70 88 172q12 68 12 262v780h88v-770q0 -195 -12 -266q-23 -145 -106 -230q-123 -123 -340 -123t-345 127q-86 86 -106 224q-10 68 -10 299zM379 1622l43 98l416 -192l-31 -64z" />
<glyph unicode="&#xda;" horiz-adv-x="1239" d="M160 627v739h88v-881q0 -233 90 -323q104 -104 289 -105q170 0 264 95q70 70 88 172q12 68 12 262v780h88v-770q0 -195 -12 -266q-23 -145 -106 -230q-123 -123 -340 -123t-345 127q-86 86 -106 224q-10 68 -10 299zM395 1528l416 192l43 -98l-428 -158z" />
<glyph unicode="&#xdb;" horiz-adv-x="1239" d="M160 627v739h88v-881q0 -233 90 -323q104 -104 289 -105q170 0 264 95q70 70 88 172q12 68 12 262v780h88v-770q0 -195 -12 -266q-23 -145 -106 -230q-123 -123 -340 -123t-345 127q-86 86 -106 224q-10 68 -10 299zM309 1526l303 184l299 -184l-39 -62l-260 138 l-260 -138z" />
<glyph unicode="&#xdc;" horiz-adv-x="1239" d="M160 627v739h88v-881q0 -233 90 -323q104 -104 289 -105q170 0 264 95q70 70 88 172q12 68 12 262v780h88v-770q0 -195 -12 -266q-23 -145 -106 -230q-123 -123 -340 -123t-345 127q-86 86 -106 224q-10 68 -10 299zM404 1571q0 31 21.5 51.5t52.5 20.5q71 0 71 -72 q0 -31 -20.5 -52t-50.5 -21q-31 0 -52.5 21.5t-21.5 51.5zM691 1571q0 31 21.5 51.5t51.5 20.5q72 0 72 -72q0 -31 -20.5 -52t-51.5 -21t-52 21.5t-21 51.5z" />
<glyph unicode="&#xdd;" horiz-adv-x="1079" d="M57 1366h103l385 -735l379 735h98l-438 -827v-539h-88v539zM311 1528l416 192l43 -98l-428 -158z" />
<glyph unicode="&#xde;" horiz-adv-x="1085" d="M180 0v1366h88v-272h203q143 0 215 -15q106 -23 172 -88q111 -110 111 -284q0 -178 -117 -295q-102 -102 -336 -103h-248v-309h-88zM268 385h238q199 0 278 80q95 94 95 248q0 139 -91 229q-51 51 -137 66q-55 10 -200 10h-183v-633z" />
<glyph unicode="&#xdf;" horiz-adv-x="1052" d="M147 0v911q0 209 11 277q20 131 94 205q104 104 254 104q145 0 240.5 -96t95.5 -240q0 -94 -56 -180q-25 -37 -106 -121q-55 -59 -55 -92q0 -29 39 -68q92 -76 182 -151q115 -109 115 -240q0 -156 -111 -248q-102 -84 -254 -84q-164 0 -256 74l39 68q106 -59 213 -60 q121 0 198.5 63.5t77.5 176.5q0 96 -90 186q-74 55 -211 174q-49 49 -49 101q0 59 116 180t116 217q0 117 -70 189.5t-180 72.5q-106 0 -181 -73q-47 -47 -65 -111q-23 -80 -23 -240v-995h-84z" />
<glyph unicode="&#xe0;" horiz-adv-x="929" d="M84 266q0 317 569 318h60v53q0 88 -4 113q-8 66 -47 104q-70 70 -205 70q-147 0 -271 -82l-43 61q18 20 93 51q111 47 233 47q160 0 250 -90q78 -78 78 -272v-639h-84v74q-174 -94 -316 -94q-141 0 -227 77.5t-86 208.5zM172 264q0 -86 55 -141q66 -66 191 -66 q137 0 295 90v363h-72q-469 0 -469 -246zM248 1274l43 98l416 -192l-31 -64z" />
<glyph unicode="&#xe1;" horiz-adv-x="929" d="M84 266q0 317 569 318h60v53q0 88 -4 113q-8 66 -47 104q-70 70 -205 70q-147 0 -271 -82l-43 61q18 20 93 51q111 47 233 47q160 0 250 -90q78 -78 78 -272v-639h-84v74q-174 -94 -316 -94q-141 0 -227 77.5t-86 208.5zM172 264q0 -86 55 -141q66 -66 191 -66 q137 0 295 90v363h-72q-469 0 -469 -246zM236 1180l416 192l43 -98l-428 -158z" />
<glyph unicode="&#xe2;" horiz-adv-x="929" d="M84 266q0 317 569 318h60v53q0 88 -4 113q-8 66 -47 104q-70 70 -205 70q-147 0 -271 -82l-43 61q18 20 93 51q111 47 233 47q160 0 250 -90q78 -78 78 -272v-639h-84v74q-174 -94 -316 -94q-141 0 -227 77.5t-86 208.5zM156 1188l303 184l299 -184l-39 -62l-260 138 l-260 -138zM172 264q0 -86 55 -141q66 -66 191 -66q137 0 295 90v363h-72q-469 0 -469 -246z" />
<glyph unicode="&#xe3;" horiz-adv-x="929" d="M84 266q0 317 569 318h60v53q0 88 -4 113q-8 66 -47 104q-70 70 -205 70q-147 0 -271 -82l-43 61q18 20 93 51q111 47 233 47q160 0 250 -90q78 -78 78 -272v-639h-84v74q-174 -94 -316 -94q-141 0 -227 77.5t-86 208.5zM162 1237q100 80 182 80q39 0 116 -24.5 t116 -24.5q72 0 139 51l49 -59q-82 -82 -190 -82q-37 0 -113 22.5t-117 22.5q-66 0 -131 -45zM172 264q0 -86 55 -141q66 -66 191 -66q137 0 295 90v363h-72q-469 0 -469 -246z" />
<glyph unicode="&#xe4;" horiz-adv-x="929" d="M84 266q0 317 569 318h60v53q0 88 -4 113q-8 66 -47 104q-70 70 -205 70q-147 0 -271 -82l-43 61q18 20 93 51q111 47 233 47q160 0 250 -90q78 -78 78 -272v-639h-84v74q-174 -94 -316 -94q-141 0 -227 77.5t-86 208.5zM172 264q0 -86 55 -141q66 -66 191 -66 q137 0 295 90v363h-72q-469 0 -469 -246zM252 1247q0 31 21.5 51.5t52.5 20.5q71 0 71 -72q0 -31 -20.5 -52t-50.5 -21q-31 0 -52.5 21.5t-21.5 51.5zM539 1247q0 31 21.5 51.5t51.5 20.5q72 0 72 -72q0 -31 -20.5 -52t-51.5 -21t-52 21.5t-21 51.5z" />
<glyph unicode="&#xe5;" horiz-adv-x="929" d="M84 266q0 317 569 318h60v53q0 88 -4 113q-8 66 -47 104q-70 70 -205 70q-147 0 -271 -82l-43 61q18 20 93 51q111 47 233 47q160 0 250 -90q78 -78 78 -272v-639h-84v74q-174 -94 -316 -94q-141 0 -227 77.5t-86 208.5zM172 264q0 -86 55 -141q66 -66 191 -66 q137 0 295 90v363h-72q-469 0 -469 -246z" />
<glyph unicode="&#xe6;" horiz-adv-x="1585" d="M92 258q0 186 172 256q119 47 361 47h63v76q0 88 -4 113q-8 66 -47 104q-70 70 -205 70q-147 0 -270 -82l-43 61q18 20 92 51q111 47 233 47q160 0 250 -90q49 -49 66 -112q106 201 362 200q162 0 264 -116q107 -125 107 -338q0 -16 -4 -62h-717q0 -193 95.5 -305 t265.5 -112q158 0 290 84l41 -70q-23 -23 -98 -53q-113 -45 -240 -45q-213 0 -321 135q-41 -41 -129 -80q-121 -53 -248 -53q-156 0 -246 77.5t-90 196.5zM190 258q0 -88 62.5 -139t169.5 -51q133 0 244 53q22 12 92 59q-72 125 -72 303h-65q-188 0 -283 -32 q-147 -51 -148 -193zM776 561h631q0 145 -68 248q-78 117 -217 117t-235 -97q-102 -102 -111 -268z" />
<glyph unicode="&#xe7;" horiz-adv-x="927" d="M92 465q0 238 131 386t346 148q109 0 201 -41q59 -27 80 -49l-43 -63q-113 72 -244 72q-174 0 -278.5 -121t-104.5 -314q0 -190 102.5 -303.5t258.5 -113.5q129 0 282 75l39 -67q-16 -20 -100 -51q-109 -41 -219 -41h-13l-18 -107q31 18 72 19q74 0 117.5 -45.5 t43.5 -118.5q0 -78 -56 -126t-128 -48q-74 0 -137 32l25 58q59 -25 96 -25q119 0 119 105q0 100 -103 100q-49 0 -86 -27l-43 25l35 164q-170 25 -272.5 149.5t-102.5 327.5z" />
<glyph unicode="&#xe8;" horiz-adv-x="993" d="M92 481q0 240 118 379t320 139q162 0 265 -116q106 -125 106 -338q0 -16 -4 -62h-717q0 -193 95.5 -305t265.5 -112q158 0 290 84l41 -70q-20 -20 -100 -53q-117 -45 -237 -45q-205 0 -324 137t-119 362zM184 561h631q0 145 -67 248q-78 117 -218 117q-139 0 -235 -97 q-102 -102 -111 -268zM279 1274l43 98l416 -192l-31 -64z" />
<glyph unicode="&#xe9;" horiz-adv-x="993" d="M92 481q0 240 118 379t320 139q162 0 265 -116q106 -125 106 -338q0 -16 -4 -62h-717q0 -193 95.5 -305t265.5 -112q158 0 290 84l41 -70q-20 -20 -100 -53q-117 -45 -237 -45q-205 0 -324 137t-119 362zM184 561h631q0 145 -67 248q-78 117 -218 117q-139 0 -235 -97 q-102 -102 -111 -268zM303 1180l416 192l43 -98l-428 -158z" />
<glyph unicode="&#xea;" horiz-adv-x="993" d="M92 481q0 240 118 379t320 139q162 0 265 -116q106 -125 106 -338q0 -16 -4 -62h-717q0 -193 95.5 -305t265.5 -112q158 0 290 84l41 -70q-20 -20 -100 -53q-117 -45 -237 -45q-205 0 -324 137t-119 362zM184 561h631q0 145 -67 248q-78 117 -218 117q-139 0 -235 -97 q-102 -102 -111 -268zM215 1188l303 184l299 -184l-39 -62l-260 138l-260 -138z" />
<glyph unicode="&#xeb;" horiz-adv-x="993" d="M92 481q0 240 118 379t320 139q162 0 265 -116q106 -125 106 -338q0 -16 -4 -62h-717q0 -193 95.5 -305t265.5 -112q158 0 290 84l41 -70q-20 -20 -100 -53q-117 -45 -237 -45q-205 0 -324 137t-119 362zM184 561h631q0 145 -67 248q-78 117 -218 117q-139 0 -235 -97 q-102 -102 -111 -268zM301 1247q0 31 21.5 51.5t52.5 20.5q71 0 71 -72q0 -31 -20.5 -52t-50.5 -21q-31 0 -52.5 21.5t-21.5 51.5zM588 1247q0 31 21.5 51.5t51.5 20.5q72 0 72 -72q0 -31 -20.5 -52t-51.5 -21t-52 21.5t-21 51.5z" />
<glyph unicode="&#xec;" horiz-adv-x="378" d="M-37 1274l43 98l416 -192l-31 -64zM147 0v977h84v-977h-84z" />
<glyph unicode="&#xed;" horiz-adv-x="378" d="M-37 1180l416 192l43 -98l-428 -158zM147 0v977h84v-977h-84z" />
<glyph unicode="&#xee;" horiz-adv-x="378" d="M-110 1188l303 184l299 -184l-39 -62l-260 138l-260 -138zM147 0v977h84v-977h-84z" />
<glyph unicode="&#xef;" horiz-adv-x="378" d="M-24 1247q0 31 21.5 51.5t52.5 20.5q71 0 71 -72q0 -31 -20.5 -52t-50.5 -21q-31 0 -52.5 21.5t-21.5 51.5zM147 0v977h84v-977h-84zM263 1247q0 31 21.5 51.5t51.5 20.5q72 0 72 -72q0 -31 -20.5 -52t-51.5 -21t-52 21.5t-21 51.5z" />
<glyph unicode="&#xf0;" horiz-adv-x="1017" d="M92 481q-10 231 95.5 374.5t285.5 143.5q166 0 354 -122q-23 266 -206 432l-252 -127l-33 57l225 113q-143 88 -407 94l4 74q299 -2 489 -123l187 94l32 -57l-164 -84q224 -207 224 -662q0 -328 -112 -517t-306 -198q-178 -8 -292 130.5t-124 377.5zM182 481 q8 -197 95.5 -313.5t224.5 -110.5q150 6 237 156q97 162 97 455q0 8 -2.5 52t-2.5 62q-152 139 -352 140q-141 0 -223 -122t-74 -319z" />
<glyph unicode="&#xf1;" horiz-adv-x="1003" d="M147 0v977h84v-84q160 106 328 106q150 0 227 -77q55 -55 74 -140q10 -49 10 -157v-625h-84v586q0 121 -8 164q-10 72 -53 114q-57 57 -174 58q-143 0 -320 -109v-813h-84zM215 1237q100 80 182 80q39 0 116 -24.5t116 -24.5q72 0 139 51l49 -59q-82 -82 -190 -82 q-37 0 -113 22.5t-117 22.5q-66 0 -131 -45z" />
<glyph unicode="&#xf2;" horiz-adv-x="1044" d="M92 489q0 236 116 373t320 137q197 0 310.5 -138t113.5 -386q0 -229 -116.5 -363.5t-315.5 -134.5q-197 0 -312.5 137.5t-115.5 374.5zM180 492q0 -195 97.5 -317t244.5 -122q162 0 252 115.5t90 314.5q0 197 -97 320t-245 123q-158 0 -250 -119t-92 -315zM281 1274 l43 98l416 -192l-31 -64z" />
<glyph unicode="&#xf3;" horiz-adv-x="1044" d="M92 489q0 236 116 373t320 137q197 0 310.5 -138t113.5 -386q0 -229 -116.5 -363.5t-315.5 -134.5q-197 0 -312.5 137.5t-115.5 374.5zM180 492q0 -195 97.5 -317t244.5 -122q162 0 252 115.5t90 314.5q0 197 -97 320t-245 123q-158 0 -250 -119t-92 -315zM301 1180 l416 192l43 -98l-428 -158z" />
<glyph unicode="&#xf4;" horiz-adv-x="1044" d="M92 489q0 236 116 373t320 137q197 0 310.5 -138t113.5 -386q0 -229 -116.5 -363.5t-315.5 -134.5q-197 0 -312.5 137.5t-115.5 374.5zM180 492q0 -195 97.5 -317t244.5 -122q162 0 252 115.5t90 314.5q0 197 -97 320t-245 123q-158 0 -250 -119t-92 -315zM223 1188 l303 184l299 -184l-39 -62l-260 138l-260 -138z" />
<glyph unicode="&#xf5;" horiz-adv-x="1044" d="M92 489q0 236 116 373t320 137q197 0 310.5 -138t113.5 -386q0 -229 -116.5 -363.5t-315.5 -134.5q-197 0 -312.5 137.5t-115.5 374.5zM180 492q0 -195 97.5 -317t244.5 -122q162 0 252 115.5t90 314.5q0 197 -97 320t-245 123q-158 0 -250 -119t-92 -315zM217 1237 q100 80 182 80q39 0 116 -24.5t116 -24.5q72 0 139 51l49 -59q-82 -82 -190 -82q-37 0 -113 22.5t-117 22.5q-66 0 -131 -45z" />
<glyph unicode="&#xf6;" horiz-adv-x="1044" d="M92 489q0 236 116 373t320 137q197 0 310.5 -138t113.5 -386q0 -229 -116.5 -363.5t-315.5 -134.5q-197 0 -312.5 137.5t-115.5 374.5zM180 492q0 -195 97.5 -317t244.5 -122q162 0 252 115.5t90 314.5q0 197 -97 320t-245 123q-158 0 -250 -119t-92 -315zM295 1247 q0 31 21.5 51.5t52.5 20.5q71 0 71 -72q0 -31 -20.5 -52t-50.5 -21q-31 0 -52.5 21.5t-21.5 51.5zM582 1247q0 31 21.5 51.5t51.5 20.5q72 0 72 -72q0 -31 -20.5 -52t-51.5 -21t-52 21.5t-21 51.5z" />
<glyph unicode="&#xf7;" d="M123 475v78h942v-78h-942zM520 78q0 31 21.5 51.5t52.5 20.5q72 0 72 -72q0 -31 -20.5 -52.5t-51.5 -21.5t-52.5 21.5t-21.5 52.5zM520 958q0 31 21.5 51.5t52.5 20.5q72 0 72 -72q0 -31 -20.5 -52t-51.5 -21t-52.5 21.5t-21.5 51.5z" />
<glyph unicode="&#xf8;" horiz-adv-x="1044" d="M92 489q0 236 116 373t320 137q133 0 230 -63l67 117l70 -39l-76 -131q133 -140 133 -408q0 -229 -116.5 -363.5t-315.5 -134.5q-121 0 -203 48l-69 -117l-68 41l72 121q-160 137 -160 419zM180 492q0 -223 119 -342l414 708q-84 68 -191 68q-158 0 -250 -119t-92 -315z M360 98q59 -45 162 -45q162 0 252 115.5t90 314.5q0 193 -94 316z" />
<glyph unicode="&#xf9;" horiz-adv-x="1003" d="M133 385v592h84v-600q0 -100 6 -139q12 -74 53 -115q68 -68 177 -68q133 0 319 107v815h84v-977h-84v84q-156 -104 -330 -104q-137 0 -225 88q-55 55 -72 139q-12 55 -12 178zM264 1274l43 98l416 -192l-31 -64z" />
<glyph unicode="&#xfa;" horiz-adv-x="1003" d="M133 385v592h84v-600q0 -100 6 -139q12 -74 53 -115q68 -68 177 -68q133 0 319 107v815h84v-977h-84v84q-156 -104 -330 -104q-137 0 -225 88q-55 55 -72 139q-12 55 -12 178zM266 1180l416 192l43 -98l-428 -158z" />
<glyph unicode="&#xfb;" horiz-adv-x="1003" d="M133 385v592h84v-600q0 -100 6 -139q12 -74 53 -115q68 -68 177 -68q133 0 319 107v815h84v-977h-84v84q-156 -104 -330 -104q-137 0 -225 88q-55 55 -72 139q-12 55 -12 178zM195 1188l303 184l299 -184l-39 -62l-260 138l-260 -138z" />
<glyph unicode="&#xfc;" horiz-adv-x="1003" d="M133 385v592h84v-600q0 -100 6 -139q12 -74 53 -115q68 -68 177 -68q133 0 319 107v815h84v-977h-84v84q-156 -104 -330 -104q-137 0 -225 88q-55 55 -72 139q-12 55 -12 178zM279 1247q0 31 21.5 51.5t52.5 20.5q71 0 71 -72q0 -31 -20.5 -52t-50.5 -21 q-31 0 -52.5 21.5t-21.5 51.5zM566 1247q0 31 21.5 51.5t51.5 20.5q72 0 72 -72q0 -31 -20.5 -52t-51.5 -21t-52 21.5t-21 51.5z" />
<glyph unicode="&#xfd;" horiz-adv-x="958" d="M-37 -432l25 74q90 -23 135 -23q111 0 178 68q55 55 148 284l-402 1006h96l353 -889l315 889h92l-385 -1063q-74 -203 -145 -274q-100 -100 -248 -101q-104 0 -162 29zM256 1180l416 192l43 -98l-428 -158z" />
<glyph unicode="&#xfe;" horiz-adv-x="1036" d="M147 -434v1907h84v-566q115 92 291 92q188 0 305 -134t117 -355q0 -233 -132 -380.5t-343 -147.5q-143 0 -238 61v-477h-84zM231 131q123 -72 244 -72q172 0 276.5 126t104.5 331q0 180 -93 294t-249 114q-143 0 -283 -105v-688z" />
<glyph unicode="&#xff;" horiz-adv-x="958" d="M-37 -432l25 74q90 -23 135 -23q111 0 178 68q55 55 148 284l-402 1006h96l353 -889l315 889h92l-385 -1063q-74 -203 -145 -274q-100 -100 -248 -101q-104 0 -162 29zM275 1247q0 31 21.5 51.5t52.5 20.5q71 0 71 -72q0 -31 -20.5 -52t-50.5 -21q-31 0 -52.5 21.5 t-21.5 51.5zM562 1247q0 31 21.5 51.5t51.5 20.5q72 0 72 -72q0 -31 -20.5 -52t-51.5 -21t-52 21.5t-21 51.5z" />
<glyph unicode="&#x152;" horiz-adv-x="1779" d="M117 678q0 324 198 522q100 100 236 135q113 31 315 31h776v-80h-604v-528h568v-76h-568v-600h621v-82h-707q-248 0 -370 27q-162 35 -263 135q-203 203 -202 516zM213 674q0 -279 170 -449q100 -100 264 -129q90 -16 301 -16h2v1208h-51q-197 0 -281 -16 q-141 -31 -241 -129q-164 -162 -164 -469z" />
<glyph unicode="&#x153;" horiz-adv-x="1757" d="M92 489q0 236 116 373t320 137q274 0 377 -251q109 252 389 251q162 0 265 -116q106 -125 106 -338q0 -16 -4 -62h-717q0 -193 95.5 -305t265.5 -112q158 0 290 84l41 -70q-23 -23 -98 -53q-113 -45 -240 -45q-287 0 -391 245q-106 -250 -387 -250q-197 0 -312.5 137.5 t-115.5 374.5zM180 492q0 -195 97.5 -317t244.5 -122q162 0 252 115.5t90 314.5q0 197 -97 320t-245 123q-158 0 -250 -119t-92 -315zM948 561h631q0 145 -68 248q-78 117 -217 117t-235 -97q-102 -102 -111 -268z" />
<glyph unicode="&#x178;" horiz-adv-x="1079" d="M57 1366h103l385 -735l379 735h98l-438 -827v-539h-88v539zM328 1571q0 31 21.5 51.5t52.5 20.5q71 0 71 -72q0 -31 -20.5 -52t-50.5 -21q-31 0 -52.5 21.5t-21.5 51.5zM615 1571q0 31 21.5 51.5t51.5 20.5q72 0 72 -72q0 -31 -20.5 -52t-51.5 -21t-52 21.5t-21 51.5z " />
<glyph unicode="&#x2c6;" horiz-adv-x="761" d="M80 1188l303 184l299 -184l-39 -62l-260 138l-260 -138z" />
<glyph unicode="&#x2dc;" horiz-adv-x="761" d="M80 1237q100 80 182 80q39 0 116 -24.5t116 -24.5q72 0 139 51l49 -59q-82 -82 -190 -82q-37 0 -113 22.5t-117 22.5q-66 0 -131 -45z" />
<glyph unicode="&#x2000;" horiz-adv-x="861" />
<glyph unicode="&#x2001;" horiz-adv-x="1722" />
<glyph unicode="&#x2002;" horiz-adv-x="861" />
<glyph unicode="&#x2003;" horiz-adv-x="1722" />
<glyph unicode="&#x2004;" horiz-adv-x="574" />
<glyph unicode="&#x2005;" horiz-adv-x="430" />
<glyph unicode="&#x2006;" horiz-adv-x="287" />
<glyph unicode="&#x2007;" horiz-adv-x="287" />
<glyph unicode="&#x2008;" horiz-adv-x="215" />
<glyph unicode="&#x2009;" horiz-adv-x="344" />
<glyph unicode="&#x200a;" horiz-adv-x="95" />
<glyph unicode="&#x2010;" horiz-adv-x="995" d="M178 475v78h639v-78h-639z" />
<glyph unicode="&#x2011;" horiz-adv-x="995" d="M178 475v78h639v-78h-639z" />
<glyph unicode="&#x2012;" horiz-adv-x="995" d="M178 475v78h639v-78h-639z" />
<glyph unicode="&#x2013;" horiz-adv-x="1300" d="M178 475v78h944v-78h-944z" />
<glyph unicode="&#x2014;" horiz-adv-x="2033" d="M178 475v78h1677v-78h-1677z" />
<glyph unicode="&#x2018;" horiz-adv-x="360" d="M76 1026q0 119 61 238q41 82 84 122l64 -43q-98 -123 -99 -317h-110z" />
<glyph unicode="&#x2019;" horiz-adv-x="360" d="M76 1049q98 123 98 317h111q0 -119 -62 -238q-41 -82 -84 -122z" />
<glyph unicode="&#x201a;" horiz-adv-x="360" d="M76 -193q98 123 98 318h111q0 -119 -62 -238q-41 -82 -84 -123z" />
<glyph unicode="&#x201c;" horiz-adv-x="598" d="M76 1026q0 119 61 238q41 82 84 122l64 -43q-98 -123 -99 -317h-110zM313 1026q0 119 62 238q41 82 84 122l63 -43q-98 -123 -98 -317h-111z" />
<glyph unicode="&#x201d;" horiz-adv-x="598" d="M76 1049q98 123 98 317h111q0 -119 -62 -238q-41 -82 -84 -122zM313 1049q98 123 99 317h110q0 -119 -61 -238q-41 -82 -84 -122z" />
<glyph unicode="&#x201e;" horiz-adv-x="598" d="M76 -193q98 123 98 318h111q0 -119 -62 -238q-41 -82 -84 -123zM313 -193q98 123 99 318h110q0 -119 -61 -238q-41 -82 -84 -123z" />
<glyph unicode="&#x2022;" horiz-adv-x="1093" d="M397 504q0 61 44 105t106 44q61 0 105 -44t44 -105t-44 -105.5t-105 -44.5t-105.5 44t-44.5 106z" />
<glyph unicode="&#x2026;" horiz-adv-x="1228" d="M133 55q0 29 21.5 50.5t50.5 21.5t50 -21.5t21 -50.5t-21.5 -50t-49.5 -21q-29 0 -50.5 21.5t-21.5 49.5zM543 55q0 29 21.5 50.5t49.5 21.5q29 0 50.5 -21.5t21.5 -50.5t-21.5 -50t-50.5 -21t-50 21.5t-21 49.5zM952 55q0 29 21.5 50.5t50.5 21.5t50.5 -21.5t21.5 -50.5 t-21.5 -50t-50.5 -21t-50.5 21.5t-21.5 49.5z" />
<glyph unicode="&#x202f;" horiz-adv-x="344" />
<glyph unicode="&#x2039;" horiz-adv-x="616" d="M133 508l281 381l69 -49l-219 -332l219 -342l-69 -47z" />
<glyph unicode="&#x203a;" horiz-adv-x="616" d="M133 166l219 342l-219 332l70 49l280 -381l-280 -389z" />
<glyph unicode="&#x205f;" horiz-adv-x="430" />
<glyph unicode="&#x20ac;" d="M68 532v78h127q-2 39 -2 84q0 20 2 62h-127v78h133q8 158 92 307q137 250 416 250q104 0 204 -45q63 -29 91 -54l-48 -65q-117 84 -243 84q-240 0 -348 -219q-57 -113 -68 -258h561v-78h-567q-2 -27 -2 -82q0 -29 2 -64h567v-78h-561q51 -471 397 -471q147 0 307 107 l50 -66q-174 -125 -355 -125q-279 0 -407 240q-78 141 -88 315h-133z" />
<glyph unicode="&#x2122;" horiz-adv-x="1464" d="M66 1300v66h491v-66h-207v-659h-78v659h-206zM573 641l86 725h80l222 -590l213 590h81l88 -725h-83l-66 571l-209 -571h-61l-207 571l-64 -571h-80z" />
<glyph unicode="&#x25fc;" horiz-adv-x="972" d="M0 0v973h973v-973h-973z" />
</font>
</defs>
</svg>
